<?xml version="1.0" standalone="no"?>
<!DOCTYPE svg PUBLIC "-//W3C//DTD SVG 20010904//EN"
 "http://www.w3.org/TR/2001/REC-SVG-20010904/DTD/svg10.dtd">
<svg version="1.0" xmlns="http://www.w3.org/2000/svg"
 width="1024.000000pt" height="1024.000000pt" viewBox="0 0 1024.000000 1024.000000"
 preserveAspectRatio="xMidYMid meet">

<g transform="translate(0.000000,1024.000000) scale(0.100000,-0.100000)"
fill="#000000" stroke="none">
<path d="M1833 7276 c-115 -115 -123 -126 -123 -162 0 -48 13 -69 106 -164 40
-41 78 -88 83 -103 7 -16 11 -113 11 -228 0 -157 -3 -206 -15 -229 -8 -15 -64
-81 -125 -147 -119 -128 -128 -147 -89 -197 11 -14 24 -24 28 -21 5 2 19 -8
32 -23 l24 -27 -27 24 c-16 14 -28 20 -28 15 0 -6 54 -63 120 -128 93 -92 124
-117 140 -113 13 3 18 1 13 -6 -4 -7 0 -8 11 -4 10 4 23 7 29 7 15 0 286 270
303 303 9 16 12 37 8 49 -3 12 -57 74 -120 138 -62 64 -116 129 -119 143 -4
14 -5 122 -3 239 3 246 -8 213 122 356 59 65 66 77 66 114 0 39 -6 47 -107
152 -137 140 -131 135 -178 136 -38 0 -46 -6 -162 -124z m357 -1011 c13 -14
21 -25 18 -25 -2 0 -15 11 -28 25 -13 14 -21 25 -18 25 2 0 15 -11 28 -25z
m120 -130 c11 -13 10 -14 -4 -9 -10 4 -16 1 -16 -7 0 -7 -2 -10 -5 -7 -5 5 4
38 10 38 1 0 8 -7 15 -15z m-628 -40 c3 -13 1 -22 -3 -19 -9 5 -13 44 -5 44 2
0 6 -11 8 -25z m573 -25 c-3 -5 2 -10 13 -10 10 0 19 -6 19 -13 0 -8 -6 -14
-14 -14 -7 0 -13 4 -13 9 0 5 -4 7 -9 4 -5 -4 -8 2 -6 11 5 24 4 23 11 23 3 0
2 -4 -1 -10z m-30 -90 c-3 -5 -11 -10 -16 -10 -6 0 -7 5 -4 10 3 6 11 10 16
10 6 0 7 -4 4 -10z m-435 -20 c0 -5 -2 -10 -4 -10 -3 0 -8 5 -11 10 -3 6 -1
10 4 10 6 0 11 -4 11 -10z m44 -6 c5 -14 4 -15 -9 -4 -17 14 -19 20 -6 20 5 0
12 -7 15 -16z m-19 -14 c3 -5 1 -10 -4 -10 -6 0 -11 5 -11 10 0 6 2 10 4 10 3
0 8 -4 11 -10z m341 -22 c4 4 2 -1 -5 -11 -11 -14 -16 -15 -22 -5 -13 20 -10
32 4 19 8 -6 18 -7 23 -3z m-36 -32 c0 -7 -10 -21 -22 -32 l-23 -19 19 22 c10
12 16 29 12 38 -3 9 -2 13 4 10 6 -3 10 -12 10 -19z m-80 -90 c0 -2 -9 -6 -20
-9 -11 -3 -18 -1 -14 4 5 9 34 13 34 5z"/>
<path d="M6157 7093 c-4 -3 -7 -300 -7 -660 l0 -653 125 0 125 0 0 660 0 660
-118 0 c-65 0 -122 -3 -125 -7z"/>
<path d="M7270 6863 l0 -237 -37 36 c-181 176 -533 97 -651 -145 -101 -209
-53 -520 101 -653 109 -93 257 -126 400 -89 66 17 97 34 150 84 l37 35 0 -57
0 -57 125 0 125 0 0 660 0 660 -125 0 -125 0 0 -237z m-157 -334 c49 -13 115
-73 138 -124 24 -51 26 -203 4 -264 -35 -100 -104 -151 -215 -159 -61 -4 -76
-1 -123 22 -95 46 -133 132 -125 279 5 97 28 149 87 198 66 56 147 72 234 48z"/>
<path d="M3970 6434 l0 -656 333 5 c364 5 396 9 489 69 61 39 105 89 137 158
22 47 26 69 26 150 0 78 -4 104 -23 145 -38 84 -96 133 -187 160 l-39 12 39
19 c102 48 152 147 142 282 -12 160 -100 257 -269 297 -48 11 -133 15 -355 15
l-293 0 0 -656z m585 419 c11 -6 31 -23 45 -38 22 -23 25 -36 25 -100 0 -64
-3 -77 -25 -100 -43 -47 -83 -58 -232 -63 l-137 -5 -3 163 c-2 89 -2 162 -1
163 7 8 312 -11 328 -20z m52 -534 c61 -31 88 -75 87 -145 -2 -85 -49 -146
-130 -164 -21 -5 -105 -10 -186 -10 l-147 0 -3 171 c-2 94 -1 173 2 176 3 3
78 3 168 0 144 -4 167 -8 209 -28z"/>
<path d="M1224 6762 c-26 -17 -34 -56 -34 -156 l0 -105 -62 -61 -62 -60 -104
0 c-147 0 -142 5 -142 -145 0 -99 3 -127 16 -139 12 -13 40 -16 134 -16 151 0
150 -1 150 150 l0 106 65 64 66 65 107 3 c59 2 113 8 120 14 17 14 17 259 0
276 -13 13 -235 17 -254 4z m244 -10 c9 -7 12 -41 10 -138 l-3 -129 -116 -5
c-126 -6 -127 -7 -188 -75 -20 -21 -43 -46 -51 -55 -12 -12 -14 -37 -12 -119
4 -139 2 -141 -131 -141 -90 0 -103 2 -124 22 -21 20 -23 29 -23 134 0 93 3
113 16 118 9 3 64 6 123 6 l107 0 64 65 65 66 5 121 c5 120 5 122 30 129 36
10 212 10 228 1z"/>
<path d="M1169 6423 c-13 -16 -12 -17 4 -4 16 13 21 21 13 21 -2 0 -10 -8 -17
-17z"/>
<path d="M2543 6760 c-21 -9 -23 -16 -25 -107 -4 -185 -5 -184 111 -181 l76 2
-75 3 c-41 2 -80 9 -87 15 -9 7 -13 44 -13 129 0 107 2 119 19 129 28 14 224
13 239 -2 8 -8 12 -52 12 -131 l0 -118 65 -65 65 -64 114 0 c125 0 132 -3 139
-60 l4 -35 1 37 c3 60 -13 68 -142 68 l-112 0 -62 63 -62 63 0 112 c0 63 -5
122 -10 133 -10 17 -22 19 -123 18 -62 0 -122 -4 -134 -9z"/>
<path d="M5436 6744 c-235 -51 -386 -240 -386 -484 0 -136 46 -255 133 -347
151 -160 405 -200 609 -97 75 38 168 135 205 214 149 316 -23 662 -358 719
-83 14 -117 13 -203 -5z m210 -228 c92 -43 144 -135 144 -256 0 -161 -101
-280 -238 -280 -143 0 -242 114 -242 279 0 88 22 151 73 207 70 75 168 94 263
50z"/>
<path d="M2735 6463 c20 -3 52 -26 94 -66 36 -34 58 -53 50 -43 -8 11 -36 41
-64 67 -39 38 -57 48 -80 47 l-30 -1 30 -4z"/>
<path d="M2893 6250 c0 -47 2 -66 4 -42 2 23 2 61 0 85 -2 23 -4 4 -4 -43z"/>
<path d="M3182 6153 c-1 -17 -5 -40 -8 -50 -5 -17 -5 -17 6 0 6 9 9 32 7 50
l-4 32 -1 -32z"/>
<path d="M2890 6128 c0 -40 25 -48 153 -46 l122 2 -125 6 c-120 5 -125 6 -137
30 -9 17 -13 20 -13 8z"/>
<path d="M1354 5888 c-16 -12 -73 -64 -127 -115 -53 -51 -108 -95 -121 -99
-13 -3 -114 -4 -224 -2 l-201 3 -109 108 c-60 59 -117 107 -126 107 -9 0 -29
-6 -44 -14 -42 -22 -250 -238 -257 -268 -4 -16 -1 -37 8 -54 20 -38 236 -250
263 -258 37 -11 73 11 169 104 l93 90 223 0 222 0 111 -109 c111 -109 150
-136 183 -124 28 9 153 135 146 146 -3 6 -1 7 5 3 15 -9 116 89 107 103 -3 7
-1 10 6 9 20 -5 52 59 45 88 -4 15 -68 88 -144 165 -151 153 -169 162 -228
117z m296 -402 c0 -2 -8 -10 -17 -17 -16 -13 -17 -12 -4 4 13 16 21 21 21 13z"/>
<path d="M3419 5795 c-60 -58 -115 -105 -122 -106 -10 0 77 -27 93 -29 3 0 11
9 18 21 8 12 9 18 3 14 -6 -3 -11 1 -11 9 0 9 7 16 15 16 17 0 21 -60 5 -88
-5 -9 -14 -36 -20 -60 -9 -35 -17 -46 -41 -54 -20 -7 -28 -15 -25 -25 3 -8 6
-16 6 -19 0 -2 6 -2 13 0 6 1 9 1 4 -1 -4 -3 -4 -9 -1 -15 3 -5 -13 4 -36 21
-38 28 -50 31 -109 30 -112 -2 -128 -17 -18 -18 l98 -1 113 -109 c62 -61 125
-113 139 -116 40 -10 75 15 201 145 115 119 136 150 136 192 0 22 -159 192
-243 259 -76 61 -89 57 -218 -66z m70 17 c-13 -9 -26 -17 -29 -17 -3 0 -12 -4
-20 -9 -8 -5 -5 2 7 15 12 14 32 25 44 26 22 2 21 2 -2 -15z m-72 -61 c1 -14
-3 -18 -13 -14 -8 3 -14 -1 -14 -11 0 -9 -8 -16 -18 -16 -10 0 -22 -3 -28 -7
-6 -6 63 60 71 67 1 0 1 -9 2 -19z m423 -108 c0 -8 -9 0 -50 45 l-45 47 48
-45 c26 -24 47 -45 47 -47z"/>
<path d="M3075 5670 l-170 -6 175 -2 c100 -1 181 2 190 8 12 8 11 9 -5 8 -11
-1 -96 -5 -190 -8z"/>
<path d="M2928 5493 c6 -2 18 -2 25 0 6 3 1 5 -13 5 -14 0 -19 -2 -12 -5z"/>
<path d="M5225 5485 c-130 -46 -120 -229 14 -265 118 -32 224 46 206 152 -10
59 -55 104 -116 117 -60 13 -55 13 -104 -4z"/>
<path d="M3913 5466 c4 -10 352 -1070 401 -1221 l23 -70 159 -3 160 -2 87 267
c48 148 143 437 212 643 68 206 125 381 125 388 0 10 -29 13 -130 11 -110 -1
-132 -4 -139 -18 -8 -15 -198 -634 -273 -888 -18 -62 -36 -113 -39 -113 -4 0
-10 17 -14 38 -4 20 -56 201 -117 402 -60 201 -124 411 -141 468 l-30 102
-101 1 c-56 1 -120 2 -144 3 -26 1 -41 -2 -39 -8z"/>
<path d="M6490 4833 c0 -354 -1 -646 -2 -650 -4 -12 538 -15 626 -3 144 19
248 84 307 192 33 61 34 66 34 178 0 110 -1 117 -31 170 -38 67 -86 107 -156
130 l-53 17 41 21 c107 55 159 174 134 312 -20 115 -89 198 -199 242 -53 21
-75 23 -379 28 l-322 5 0 -642z m569 402 c56 -33 76 -68 76 -134 0 -117 -58
-152 -262 -159 l-133 -5 0 163 0 162 143 -3 c119 -4 147 -7 176 -24z m-56
-505 c134 -14 185 -54 195 -150 7 -72 -18 -123 -77 -158 -44 -26 -53 -27 -213
-31 l-168 -3 0 176 0 176 88 0 c48 0 127 -5 175 -10z"/>
<path d="M1955 5351 c-44 -28 -272 -262 -280 -288 -3 -12 0 -34 9 -50 16 -31
136 -153 136 -139 0 5 9 1 20 -9 11 -10 17 -22 14 -27 -3 -5 8 -24 25 -44 l31
-35 0 -215 c0 -251 3 -241 -105 -354 -75 -79 -91 -107 -81 -143 3 -12 57 -75
119 -140 155 -162 158 -162 333 22 55 57 102 111 105 120 11 28 -10 62 -99
159 l-87 95 -3 224 c-3 219 -3 225 20 261 13 20 22 41 20 45 -1 5 1 6 6 3 10
-6 165 149 182 182 6 13 9 34 6 45 -3 12 -70 86 -149 165 -154 152 -165 159
-222 123z m-55 -75 c0 -2 -8 -10 -17 -17 -16 -13 -17 -12 -4 4 13 16 21 21 21
13z m-80 -80 c0 -2 -8 -10 -17 -17 -16 -13 -17 -12 -4 4 13 16 21 21 21 13z
m-106 -192 c3 -8 2 -12 -4 -9 -6 3 -10 10 -10 16 0 14 7 11 14 -7z m56 -69
c13 -14 21 -25 18 -25 -2 0 -15 11 -28 25 -13 14 -21 25 -18 25 2 0 15 -11 28
-25z"/>
<path d="M8640 5240 l0 -120 -70 0 -70 0 0 -105 0 -105 69 0 70 0 3 -282 c3
-262 5 -286 24 -328 25 -54 78 -103 131 -121 42 -15 215 -19 276 -6 l37 8 0
110 c0 100 -2 110 -17 106 -52 -15 -97 -17 -134 -7 -64 17 -69 39 -69 300 l0
220 110 0 110 0 0 105 0 105 -110 0 -110 0 0 120 0 120 -125 0 -125 0 0 -120z"/>
<path d="M9511 5139 c-72 -14 -168 -65 -224 -118 -100 -95 -140 -203 -140
-376 0 -70 5 -128 15 -161 64 -209 223 -324 449 -324 188 0 336 69 406 188 26
44 26 45 7 59 -26 20 -155 83 -168 83 -6 -1 -23 -18 -37 -39 -37 -53 -101 -81
-184 -81 -126 0 -205 62 -230 177 l-7 33 334 2 333 3 3 79 c5 145 -38 265
-126 352 -111 110 -270 155 -431 123z m197 -208 c47 -24 77 -56 97 -103 29
-71 38 -68 -194 -68 l-210 0 8 28 c20 68 57 114 116 145 43 23 137 22 183 -2z"/>
<path d="M5170 4648 l0 -478 125 0 125 0 0 474 0 475 -125 3 -125 3 0 -477z"/>
<path d="M5580 5020 l0 -100 220 0 219 0 -219 -271 -220 -271 0 -104 0 -104
370 0 370 0 0 105 0 105 -220 0 -220 0 77 98 c42 53 144 179 225 279 l148 182
0 90 0 91 -375 0 -375 0 0 -100z"/>
<path d="M7487 5103 c3 -10 81 -202 174 -428 231 -566 210 -505 192 -540 -43
-84 -113 -120 -222 -113 l-71 4 0 -98 0 -97 38 -8 c20 -4 82 -8 137 -8 84 0
108 4 147 23 58 29 121 88 148 141 11 22 119 287 240 588 l220 548 -137 3
c-74 1 -137 1 -139 -1 -2 -2 -42 -116 -89 -253 -47 -137 -97 -282 -112 -323
l-26 -74 -48 139 c-27 77 -79 223 -115 327 l-67 187 -138 0 c-127 0 -138 -1
-132 -17z"/>
<path d="M3020 5093 c-84 -3 -108 -7 -117 -20 -9 -11 -13 -54 -13 -127 l0
-109 -64 -64 -64 -64 -112 2 c-143 4 -140 7 -140 -152 0 -96 3 -119 17 -130
12 -10 49 -14 134 -14 155 0 153 -2 157 148 l3 112 57 58 56 57 113 0 c153 0
153 0 153 159 0 113 -1 121 -22 135 -12 9 -29 15 -38 14 -8 -1 -62 -4 -120 -5z"/>
<path d="M832 5078 c-8 -8 -12 -51 -12 -128 0 -161 -1 -160 140 -160 l109 0
60 -62 61 -63 0 -105 c0 -151 -1 -150 154 -150 159 0 156 -3 156 149 0 62 -5
121 -10 132 -10 17 -22 19 -125 19 l-115 0 -42 38 c-89 79 -87 75 -88 198 0
146 2 144 -156 144 -80 0 -124 -4 -132 -12z m257 -12 c8 -10 12 -51 10 -126
-2 -87 1 -114 12 -122 11 -7 11 -11 1 -15 -10 -4 -10 -8 0 -21 11 -13 10 -14
-9 -4 -12 7 -25 17 -29 23 -5 8 -37 9 -105 4 -92 -6 -99 -5 -100 12 0 16 -1
16 -8 -2 -8 -19 -8 -19 -20 3 -11 21 -15 236 -4 255 2 4 57 7 122 7 91 0 121
-3 130 -14z"/>
<path d="M1055 5063 c11 -3 24 -10 28 -17 6 -7 7 -6 4 4 -2 8 -14 16 -28 17
-19 1 -20 1 -4 -4z"/>
<path d="M1826 4855 c4 -8 11 -15 16 -15 6 0 5 6 -2 15 -7 8 -14 15 -16 15 -2
0 -1 -7 2 -15z"/>
</g>
</svg>
